<mxfile host="app.diagrams.net" modified="2024-09-13T19:38:13.161Z" agent="Mozilla/5.0 (Windows NT 10.0; Win64; x64) AppleWebKit/537.36 (KHTML, like Gecko) Chrome/128.0.0.0 Safari/537.36" etag="wQVCLeNamKUfTwHwyAWu" version="24.6.5" type="github">
  <diagram id="C5RBs43oDa-KdzZeNtuy" name="Page-1">
    <mxGraphModel dx="3434" dy="1342" grid="1" gridSize="10" guides="1" tooltips="1" connect="1" arrows="1" fold="1" page="1" pageScale="1" pageWidth="827" pageHeight="1169" math="0" shadow="0">
      <root>
        <mxCell id="WIyWlLk6GJQsqaUBKTNV-0" />
        <mxCell id="WIyWlLk6GJQsqaUBKTNV-1" parent="WIyWlLk6GJQsqaUBKTNV-0" />
        <mxCell id="TPHb3D3cRGj6FZNdLAwt-12" value="Server" style="swimlane;whiteSpace=wrap;html=1;fillColor=#dae8fc;strokeColor=#6c8ebf;gradientColor=#7ea6e0;swimlaneFillColor=#bae0fd;" vertex="1" parent="WIyWlLk6GJQsqaUBKTNV-1">
          <mxGeometry x="1241" y="30" width="1210" height="960" as="geometry">
            <mxRectangle x="590" y="190" width="280" height="30" as="alternateBounds" />
          </mxGeometry>
        </mxCell>
        <mxCell id="TPHb3D3cRGj6FZNdLAwt-45" value="&lt;span style=&quot;font-weight: 400;&quot;&gt;Get user_name and user_password&lt;/span&gt;" style="swimlane;whiteSpace=wrap;html=1;" vertex="1" parent="TPHb3D3cRGj6FZNdLAwt-12">
          <mxGeometry x="70" y="90" width="250" height="410" as="geometry">
            <mxRectangle x="30" y="70" width="230" height="30" as="alternateBounds" />
          </mxGeometry>
        </mxCell>
        <mxCell id="TPHb3D3cRGj6FZNdLAwt-39" value="&lt;span style=&quot;font-weight: 400; text-wrap: nowrap;&quot;&gt;Check user_name&lt;/span&gt;" style="swimlane;whiteSpace=wrap;html=1;" vertex="1" parent="TPHb3D3cRGj6FZNdLAwt-45">
          <mxGeometry x="20" y="60" width="210" height="340" as="geometry" />
        </mxCell>
        <mxCell id="TPHb3D3cRGj6FZNdLAwt-40" value="&lt;span style=&quot;font-weight: 400; text-align: left;&quot;&gt;If user_name exists&lt;/span&gt;" style="swimlane;whiteSpace=wrap;html=1;fillColor=#d5e8d4;strokeColor=#82b366;" vertex="1" parent="TPHb3D3cRGj6FZNdLAwt-39">
          <mxGeometry x="30" y="30" width="160" height="170" as="geometry">
            <mxRectangle x="30" y="30" width="140" height="30" as="alternateBounds" />
          </mxGeometry>
        </mxCell>
        <mxCell id="TPHb3D3cRGj6FZNdLAwt-62" value="&lt;div style=&quot;text-align: left;&quot;&gt;&lt;span style=&quot;background-color: initial; font-weight: 400;&quot;&gt;if user_password true&lt;/span&gt;&lt;/div&gt;" style="swimlane;whiteSpace=wrap;html=1;fillColor=#d5e8d4;strokeColor=#82b366;" vertex="1" parent="TPHb3D3cRGj6FZNdLAwt-40">
          <mxGeometry x="9" y="110" width="141" height="50" as="geometry" />
        </mxCell>
        <mxCell id="TPHb3D3cRGj6FZNdLAwt-64" value="return access" style="text;html=1;align=left;verticalAlign=middle;whiteSpace=wrap;rounded=0;" vertex="1" parent="TPHb3D3cRGj6FZNdLAwt-62">
          <mxGeometry x="9" y="25" width="90" height="20" as="geometry" />
        </mxCell>
        <mxCell id="TPHb3D3cRGj6FZNdLAwt-63" value="&lt;span style=&quot;font-weight: 400; text-align: left;&quot;&gt;if user_password false&lt;/span&gt;" style="swimlane;whiteSpace=wrap;html=1;fillColor=#f8cecc;strokeColor=#b85450;" vertex="1" parent="TPHb3D3cRGj6FZNdLAwt-40">
          <mxGeometry x="9" y="35" width="141" height="60" as="geometry" />
        </mxCell>
        <mxCell id="TPHb3D3cRGj6FZNdLAwt-68" value="return false" style="text;html=1;align=left;verticalAlign=middle;whiteSpace=wrap;rounded=0;" vertex="1" parent="TPHb3D3cRGj6FZNdLAwt-63">
          <mxGeometry x="14" y="30" width="90" height="20" as="geometry" />
        </mxCell>
        <mxCell id="TPHb3D3cRGj6FZNdLAwt-38" value="&lt;span style=&quot;font-weight: 400; text-align: left;&quot;&gt;If user_name not exists&lt;/span&gt;" style="swimlane;whiteSpace=wrap;html=1;fillColor=#f8cecc;strokeColor=#b85450;" vertex="1" parent="TPHb3D3cRGj6FZNdLAwt-39">
          <mxGeometry x="30" y="220" width="160" height="100" as="geometry">
            <mxRectangle x="30" y="220" width="160" height="30" as="alternateBounds" />
          </mxGeometry>
        </mxCell>
        <mxCell id="TPHb3D3cRGj6FZNdLAwt-78" value="create new account on database" style="text;html=1;align=left;verticalAlign=middle;whiteSpace=wrap;rounded=0;" vertex="1" parent="TPHb3D3cRGj6FZNdLAwt-38">
          <mxGeometry x="9" y="30" width="111" height="40" as="geometry" />
        </mxCell>
        <mxCell id="TPHb3D3cRGj6FZNdLAwt-80" value="return access" style="text;html=1;align=left;verticalAlign=middle;whiteSpace=wrap;rounded=0;" vertex="1" parent="TPHb3D3cRGj6FZNdLAwt-38">
          <mxGeometry x="9" y="70" width="90" height="20" as="geometry" />
        </mxCell>
        <mxCell id="TPHb3D3cRGj6FZNdLAwt-57" value="Client" style="swimlane;whiteSpace=wrap;html=1;fillColor=#fff2cc;gradientColor=#ffd966;strokeColor=#d6b656;swimlaneFillColor=#FFF2CC;" vertex="1" parent="WIyWlLk6GJQsqaUBKTNV-1">
          <mxGeometry x="-230" y="20" width="1260" height="780" as="geometry" />
        </mxCell>
        <mxCell id="TPHb3D3cRGj6FZNdLAwt-53" value="&lt;span style=&quot;font-weight: 400;&quot;&gt;Progress indicator&lt;/span&gt;" style="swimlane;whiteSpace=wrap;html=1;fillColor=#f5f5f5;gradientColor=#b3b3b3;strokeColor=#666666;swimlaneFillColor=#E6E6E6;" vertex="1" parent="TPHb3D3cRGj6FZNdLAwt-57">
          <mxGeometry x="490" y="130" width="430" height="620" as="geometry">
            <mxRectangle x="490" y="130" width="140" height="30" as="alternateBounds" />
          </mxGeometry>
        </mxCell>
        <mxCell id="TPHb3D3cRGj6FZNdLAwt-55" value="send data to server" style="swimlane;whiteSpace=wrap;html=1;" vertex="1" parent="TPHb3D3cRGj6FZNdLAwt-53">
          <mxGeometry x="13" y="55" width="407" height="105" as="geometry" />
        </mxCell>
        <mxCell id="TPHb3D3cRGj6FZNdLAwt-58" value="Take user_name and user_password in form" style="text;html=1;align=left;verticalAlign=middle;whiteSpace=wrap;rounded=0;" vertex="1" parent="TPHb3D3cRGj6FZNdLAwt-55">
          <mxGeometry x="20" y="35" width="250" height="30" as="geometry" />
        </mxCell>
        <mxCell id="TPHb3D3cRGj6FZNdLAwt-59" value="pack data for shipping" style="text;html=1;align=left;verticalAlign=middle;whiteSpace=wrap;rounded=0;" vertex="1" parent="TPHb3D3cRGj6FZNdLAwt-55">
          <mxGeometry x="20" y="65" width="250" height="30" as="geometry" />
        </mxCell>
        <mxCell id="TPHb3D3cRGj6FZNdLAwt-65" value="get result fron server" style="swimlane;whiteSpace=wrap;html=1;" vertex="1" parent="TPHb3D3cRGj6FZNdLAwt-53">
          <mxGeometry x="13" y="180" width="407" height="360" as="geometry" />
        </mxCell>
        <mxCell id="TPHb3D3cRGj6FZNdLAwt-69" value="&lt;div style=&quot;text-align: left;&quot;&gt;&lt;span style=&quot;background-color: initial; font-weight: 400;&quot;&gt;if&amp;nbsp;&lt;/span&gt;&lt;span style=&quot;font-weight: 400; background-color: initial;&quot;&gt;return access&lt;/span&gt;&lt;/div&gt;" style="swimlane;whiteSpace=wrap;html=1;fillColor=#d5e8d4;strokeColor=#82b366;" vertex="1" parent="TPHb3D3cRGj6FZNdLAwt-65">
          <mxGeometry x="10" y="120" width="380" height="200" as="geometry" />
        </mxCell>
        <mxCell id="TPHb3D3cRGj6FZNdLAwt-70" value="return access" style="text;html=1;align=left;verticalAlign=middle;whiteSpace=wrap;rounded=0;" vertex="1" parent="TPHb3D3cRGj6FZNdLAwt-69">
          <mxGeometry x="9" y="25" width="90" height="20" as="geometry" />
        </mxCell>
        <mxCell id="TPHb3D3cRGj6FZNdLAwt-71" value="&lt;span style=&quot;font-weight: 400; text-align: left;&quot;&gt;if&amp;nbsp;&lt;/span&gt;&lt;span style=&quot;font-weight: 400; text-align: left;&quot;&gt;return false&lt;/span&gt;" style="swimlane;whiteSpace=wrap;html=1;fillColor=#f8cecc;strokeColor=#b85450;" vertex="1" parent="TPHb3D3cRGj6FZNdLAwt-65">
          <mxGeometry x="107" y="30" width="193" height="80" as="geometry" />
        </mxCell>
        <mxCell id="TPHb3D3cRGj6FZNdLAwt-72" value="show error alert" style="text;html=1;align=left;verticalAlign=middle;whiteSpace=wrap;rounded=0;" vertex="1" parent="TPHb3D3cRGj6FZNdLAwt-71">
          <mxGeometry x="14" y="30" width="90" height="20" as="geometry" />
        </mxCell>
        <mxCell id="TPHb3D3cRGj6FZNdLAwt-76" value="return to acsess form" style="text;html=1;align=left;verticalAlign=middle;whiteSpace=wrap;rounded=0;" vertex="1" parent="TPHb3D3cRGj6FZNdLAwt-71">
          <mxGeometry x="14" y="50" width="136" height="20" as="geometry" />
        </mxCell>
        <mxCell id="TPHb3D3cRGj6FZNdLAwt-48" value="&lt;span style=&quot;font-style: italic; font-weight: 400; text-wrap: nowrap;&quot;&gt;Registration Form&lt;/span&gt;" style="swimlane;whiteSpace=wrap;html=1;swimlaneFillColor=#FFFFFF;gradientColor=none;" vertex="1" parent="TPHb3D3cRGj6FZNdLAwt-57">
          <mxGeometry x="20" y="40" width="397" height="240" as="geometry" />
        </mxCell>
        <mxCell id="TPHb3D3cRGj6FZNdLAwt-49" value="User_name" style="rounded=0;whiteSpace=wrap;html=1;fillColor=#fff2cc;strokeColor=#d6b656;" vertex="1" parent="TPHb3D3cRGj6FZNdLAwt-48">
          <mxGeometry x="60" y="43" width="250" height="27" as="geometry" />
        </mxCell>
        <mxCell id="TPHb3D3cRGj6FZNdLAwt-50" value="User_password" style="rounded=0;whiteSpace=wrap;html=1;fillColor=#fff2cc;strokeColor=#d6b656;" vertex="1" parent="TPHb3D3cRGj6FZNdLAwt-48">
          <mxGeometry x="60" y="81" width="250" height="27" as="geometry" />
        </mxCell>
        <mxCell id="TPHb3D3cRGj6FZNdLAwt-51" value="new_game" style="rounded=1;whiteSpace=wrap;html=1;fillColor=#e1d5e7;strokeColor=#9673a6;" vertex="1" parent="TPHb3D3cRGj6FZNdLAwt-48">
          <mxGeometry x="60" y="158" width="120" height="32" as="geometry" />
        </mxCell>
        <mxCell id="TPHb3D3cRGj6FZNdLAwt-52" value="Connect" style="rounded=1;whiteSpace=wrap;html=1;fillColor=#e1d5e7;strokeColor=#9673a6;" vertex="1" parent="TPHb3D3cRGj6FZNdLAwt-48">
          <mxGeometry x="197" y="158" width="120" height="32" as="geometry" />
        </mxCell>
        <mxCell id="TPHb3D3cRGj6FZNdLAwt-54" style="edgeStyle=orthogonalEdgeStyle;rounded=0;orthogonalLoop=1;jettySize=auto;html=1;entryX=0.463;entryY=-0.083;entryDx=0;entryDy=0;entryPerimeter=0;" edge="1" parent="TPHb3D3cRGj6FZNdLAwt-57" source="TPHb3D3cRGj6FZNdLAwt-52" target="TPHb3D3cRGj6FZNdLAwt-58">
          <mxGeometry relative="1" as="geometry">
            <Array as="points">
              <mxPoint x="430" y="214" />
              <mxPoint x="430" y="90" />
              <mxPoint x="639" y="90" />
            </Array>
          </mxGeometry>
        </mxCell>
        <mxCell id="TPHb3D3cRGj6FZNdLAwt-77" style="edgeStyle=orthogonalEdgeStyle;rounded=0;orthogonalLoop=1;jettySize=auto;html=1;entryX=0.75;entryY=1;entryDx=0;entryDy=0;" edge="1" parent="TPHb3D3cRGj6FZNdLAwt-57" source="TPHb3D3cRGj6FZNdLAwt-76" target="TPHb3D3cRGj6FZNdLAwt-48">
          <mxGeometry relative="1" as="geometry" />
        </mxCell>
        <mxCell id="TPHb3D3cRGj6FZNdLAwt-81" style="edgeStyle=orthogonalEdgeStyle;rounded=0;orthogonalLoop=1;jettySize=auto;html=1;entryX=0;entryY=0.5;entryDx=0;entryDy=0;" edge="1" parent="TPHb3D3cRGj6FZNdLAwt-57" source="TPHb3D3cRGj6FZNdLAwt-51" target="TPHb3D3cRGj6FZNdLAwt-59">
          <mxGeometry relative="1" as="geometry">
            <Array as="points">
              <mxPoint x="160" y="265" />
            </Array>
          </mxGeometry>
        </mxCell>
        <mxCell id="TPHb3D3cRGj6FZNdLAwt-56" style="edgeStyle=orthogonalEdgeStyle;rounded=0;orthogonalLoop=1;jettySize=auto;html=1;entryX=0.5;entryY=0;entryDx=0;entryDy=0;exitX=0.75;exitY=0;exitDx=0;exitDy=0;" edge="1" parent="WIyWlLk6GJQsqaUBKTNV-1" source="TPHb3D3cRGj6FZNdLAwt-58" target="TPHb3D3cRGj6FZNdLAwt-39">
          <mxGeometry relative="1" as="geometry">
            <Array as="points">
              <mxPoint x="481" y="90" />
              <mxPoint x="1436" y="90" />
            </Array>
          </mxGeometry>
        </mxCell>
        <mxCell id="TPHb3D3cRGj6FZNdLAwt-73" style="edgeStyle=orthogonalEdgeStyle;rounded=0;orthogonalLoop=1;jettySize=auto;html=1;exitX=0;exitY=0.5;exitDx=0;exitDy=0;entryX=1;entryY=0.5;entryDx=0;entryDy=0;" edge="1" parent="WIyWlLk6GJQsqaUBKTNV-1" source="TPHb3D3cRGj6FZNdLAwt-63" target="TPHb3D3cRGj6FZNdLAwt-71">
          <mxGeometry relative="1" as="geometry">
            <Array as="points">
              <mxPoint x="720" y="275" />
              <mxPoint x="720" y="400" />
            </Array>
          </mxGeometry>
        </mxCell>
        <mxCell id="TPHb3D3cRGj6FZNdLAwt-75" style="edgeStyle=orthogonalEdgeStyle;rounded=0;orthogonalLoop=1;jettySize=auto;html=1;exitX=0;exitY=0.5;exitDx=0;exitDy=0;" edge="1" parent="WIyWlLk6GJQsqaUBKTNV-1" source="TPHb3D3cRGj6FZNdLAwt-62">
          <mxGeometry relative="1" as="geometry">
            <mxPoint x="870" y="520" as="targetPoint" />
          </mxGeometry>
        </mxCell>
        <mxCell id="TPHb3D3cRGj6FZNdLAwt-79" style="edgeStyle=orthogonalEdgeStyle;rounded=0;orthogonalLoop=1;jettySize=auto;html=1;exitX=0;exitY=0.5;exitDx=0;exitDy=0;" edge="1" parent="WIyWlLk6GJQsqaUBKTNV-1" source="TPHb3D3cRGj6FZNdLAwt-80">
          <mxGeometry relative="1" as="geometry">
            <mxPoint x="950" y="600" as="targetPoint" />
          </mxGeometry>
        </mxCell>
      </root>
    </mxGraphModel>
  </diagram>
</mxfile>
